# xmcd
#
# Track frame offsets:
#	150
#	17685
#	28836
#	47015
#	67361
#	87188
#	106343
#	126374
#	145628
#	162634
#	181994
#	201748
#	215810
#	235277
#	253227
#	268865
#	291074
#	307658
#
# Disc length: 4413 seconds
#
# Revision: 1
# Processed by: cddbd v1.5.2PL0 Copyright (c) Steve Scherf et al.
# Submitted via: audiograbber 1.83.01
#
DISCID=1b113b12
DTITLE=Various Artist - Smooth Guitar
DYEAR=2010
DGENRE=Blues
TTITLE0=On the Beach
TTITLE1=On Broadway
TTITLE2=La Isla Bonita
TTITLE3=Feel Like Makin' Love
TTITLE4=Oye Coma Va
TTITLE5=Lady in Red
TTITLE6=Amigos Para Siempre
TTITLE7=Light My Fire
TTITLE8=How Deep Is Your Love
TTITLE9=Albatross
TTITLE10=The Closer I Get to You
TTITLE11=Bilitis
TTITLE12=Tears in Heaven
TTITLE13=Arthur's Theme
TTITLE14=The Long and Winding Road
TTITLE15=My Heart Will Go on
TTITLE16=Imagine
TTITLE17=Hotel California
EXTD=
EXTT0=
EXTT1=
EXTT2=
EXTT3=
EXTT4=
EXTT5=
EXTT6=
EXTT7=
EXTT8=
EXTT9=
EXTT10=
EXTT11=
EXTT12=
EXTT13=
EXTT14=
EXTT15=
EXTT16=
EXTT17=
PLAYORDER=
